HIERARCHY
ROOT Hips
{
	OFFSET -0.001795 -0.223333 0.028219
	CHANNELS 6 Xposition Yposition Zposition Zrotation Yrotation Xrotation 
	JOINT LeftUpLeg
	{
		OFFSET 0.069520 -0.091406 -0.006815
		CHANNELS 3 Zrotation Yrotation Xrotation
		JOINT LeftLeg
		{
			OFFSET 0.034277 -0.375199 -0.004496
			CHANNELS 3 Zrotation Yrotation Xrotation
			JOINT LeftFoot
			{
				OFFSET -0.013596 -0.397961 -0.043693
				CHANNELS 3 Zrotation Yrotation Xrotation
				JOINT LeftToe
				{
					OFFSET 0.026358 -0.055791 0.119288
					CHANNELS 3 Zrotation Yrotation Xrotation
					End Site
					{
						OFFSET 0.000000 0.000000 0.000000
					}
				}
			}
		}
	}
	JOINT RightUpLeg
	{
		OFFSET -0.067670 -0.090522 -0.004320
		CHANNELS 3 Zrotation Yrotation Xrotation
		JOINT RightLeg
		{
			OFFSET -0.038290 -0.382569 -0.008850
			CHANNELS 3 Zrotation Yrotation Xrotation
			JOINT RightFoot
			{
				OFFSET 0.015774 -0.398415 -0.042312
				CHANNELS 3 Zrotation Yrotation Xrotation
				JOINT RightToe
				{
					OFFSET -0.025372 -0.048144 0.123348
					CHANNELS 3 Zrotation Yrotation Xrotation
					End Site
					{
						OFFSET 0.000000 0.000000 0.000000
					}
				}
			}
		}
	}
	JOINT Spine
	{
		OFFSET -0.002533 0.108963 -0.026696
		CHANNELS 3 Zrotation Yrotation Xrotation
		JOINT Spine1
		{
			OFFSET 0.005487 0.135180 0.001092
			CHANNELS 3 Zrotation Yrotation Xrotation
			JOINT Spine2
			{
				OFFSET 0.001457 0.052922 0.025425
				CHANNELS 3 Zrotation Yrotation Xrotation
				JOINT Neck
				{
					OFFSET -0.002778 0.213870 -0.042857
					CHANNELS 3 Zrotation Yrotation Xrotation
					JOINT Head
					{
						OFFSET 0.005152 0.064970 0.051349
						CHANNELS 3 Zrotation Yrotation Xrotation
						End Site
						{
							OFFSET 0.000000 0.000000 0.000000
						}
					}
				}
				JOINT LeftShoulder
				{
					OFFSET 0.078845 0.121749 -0.034090
					CHANNELS 3 Zrotation Yrotation Xrotation
					JOINT LeftArm
					{
						OFFSET 0.090977 0.030469 -0.008868
						CHANNELS 3 Zrotation Yrotation Xrotation
						JOINT LeftForeArm
						{
							OFFSET 0.259612 -0.012772 -0.027456
							CHANNELS 3 Zrotation Yrotation Xrotation
							JOINT LeftHand
							{
								OFFSET 0.249234 0.008986 -0.001171
								CHANNELS 3 Zrotation Yrotation Xrotation
								End Site
								{
									OFFSET 0.000000 0.000000 0.000000
								}
							}
						}
					}
				}
				JOINT RightShoulder
				{
					OFFSET -0.081759 0.118833 -0.038615
					CHANNELS 3 Zrotation Yrotation Xrotation
					JOINT RightArm
					{
						OFFSET -0.096012 0.032551 -0.009143
						CHANNELS 3 Zrotation Yrotation Xrotation
						JOINT RightForeArm
						{
							OFFSET -0.253742 -0.013329 -0.021401
							CHANNELS 3 Zrotation Yrotation Xrotation
							JOINT RightHand
							{
								OFFSET -0.255298 0.007772 -0.005559
								CHANNELS 3 Zrotation Yrotation Xrotation
								End Site
								{
									OFFSET 0.000000 0.000000 0.000000
								}
							}
						}
					}
				}
			}
		}
	}
}
MOTION
Frames: 13
Frame Time: 0.050000
0.000000 0.944615 0.000000 -4.103349 -7.740474 3.006327 0.984391 -0.793352 -10.187660 -4.451229 0.637573 5.142869 10.646723 21.086635 10.079436 0.000000 0.000000 0.000000 -5.084529 1.000533 -12.506756 19.819631 -7.782746 55.529013 -10.943830 -24.944190 14.092558 0.000000 0.000000 0.000000 -6.000726 0.390533 13.227410 4.636006 -0.472107 -25.751259 0.668164 1.507486 29.264490 2.424500 0.206156 -33.362505 0.000000 0.000000 0.000000 -25.846573 -3.049965 1.687690 -49.084919 -13.730059 -3.286778 -9.940076 -17.289555 2.376272 0.000000 0.000000 0.000000 17.477851 10.337388 3.757853 55.459577 14.616519 -1.266021 4.126489 19.172079 1.325555 0.000000 0.000000 0.000000 
-0.001560 0.944984 0.007739 -5.610440 -8.372634 3.154858 3.017575 -0.501608 -8.198309 -3.866675 0.514185 2.568378 9.831155 19.813476 9.049074 0.000000 0.000000 0.000000 -7.207133 1.002467 -14.366296 22.739741 -9.803617 57.772717 -12.307459 -26.498383 19.697654 0.000000 0.000000 0.000000 -4.883708 0.210147 12.096336 5.635735 -0.833275 -24.257593 0.570231 2.160236 29.295562 1.821651 0.715786 -35.490217 0.000000 0.000000 0.000000 -24.377652 -1.121024 0.401831 -49.478566 -13.617718 -3.300753 -14.918711 -19.149769 3.572877 0.000000 0.000000 0.000000 16.475915 10.043918 3.657173 54.952151 14.411831 -1.382462 7.343054 21.665214 2.079417 0.000000 0.000000 0.000000 
-0.004084 0.946629 0.015052 -5.768285 -8.764338 1.928023 3.421199 -0.352689 -6.150654 -4.158281 0.573331 3.171198 10.687958 21.312368 8.499194 0.000000 0.000000 0.000000 -7.745294 0.888166 -13.109398 21.185204 -8.274059 55.128506 -12.261994 -26.657159 17.940426 0.000000 0.000000 0.000000 -3.623048 0.036865 12.460744 4.524617 -0.639310 -23.716884 1.263063 2.923223 29.198680 2.061022 0.705884 -35.674913 0.000000 0.000000 0.000000 -23.662767 -2.374308 1.013565 -49.079897 -14.615995 -2.812365 -15.016771 -19.361780 3.597939 0.000000 0.000000 0.000000 14.121839 9.349106 3.395746 57.278548 14.655424 -1.238838 6.195337 24.201869 2.181301 0.000000 0.000000 0.000000 
-0.007231 0.947126 0.021486 -6.567780 -9.397296 1.631795 4.600261 -0.218127 -5.001107 -4.361859 0.616688 3.292374 10.826369 21.645920 7.603747 0.000000 0.000000 0.000000 -7.914277 0.938886 -14.069980 18.879759 -6.288883 51.259237 -13.410768 -28.367987 18.355745 0.000000 0.000000 0.000000 -3.877155 0.076836 13.015407 5.713065 -0.896497 -24.106401 1.740372 3.084015 29.356578 2.230929 0.783704 -38.246590 0.000000 0.000000 0.000000 -23.323675 -0.241641 -0.227972 -49.651986 -14.966706 -2.695263 -16.631125 -19.575998 3.971546 0.000000 0.000000 0.000000 14.005346 9.225064 3.312444 54.199909 16.241719 -0.635118 8.854274 24.404387 2.703167 0.000000 0.000000 0.000000 
-0.010756 0.946630 0.027170 -6.850293 -10.021779 0.954364 4.927569 -0.160388 -4.448881 -4.489966 0.679900 4.962722 11.382507 22.627762 7.384466 0.000000 0.000000 0.000000 -8.190596 0.859481 -12.778908 15.921376 -4.031871 43.278709 -13.668709 -28.897621 17.653904 0.000000 0.000000 0.000000 -3.660855 0.056227 13.539911 5.527189 -0.856758 -24.171192 2.704595 3.159374 29.893974 2.210954 0.802150 -39.049457 0.000000 0.000000 0.000000 -21.884081 0.117454 -0.295469 -50.195556 -14.923102 -2.734275 -17.290989 -21.196615 4.489956 0.000000 0.000000 0.000000 12.865661 8.561633 2.939220 53.358541 16.763552 -0.479380 11.485099 26.189298 3.485123 0.000000 0.000000 0.000000 
-0.014938 0.945921 0.032277 -6.943016 -11.668615 0.577629 5.714771 -0.065555 -3.857752 -5.934500 1.022949 6.062995 12.085363 23.944482 6.844785 0.000000 0.000000 0.000000 -8.151846 0.857742 -12.053934 12.476169 -2.008979 34.322118 -13.401717 -29.138143 12.863516 0.000000 0.000000 0.000000 -3.422977 0.057891 14.130101 5.564235 -0.870409 -24.361312 2.902953 3.162207 30.220408 2.263595 0.723563 -40.135798 0.000000 0.000000 0.000000 -21.026939 0.694237 -0.344153 -50.782612 -14.765512 -2.805264 -17.381200 -23.301249 5.041577 0.000000 0.000000 0.000000 11.710536 9.763081 3.320572 53.196710 18.506607 0.238166 11.159302 27.189199 3.512258 0.000000 0.000000 0.000000 
-0.020169 0.943452 0.036835 -7.016087 -12.904590 0.747007 6.191981 -0.004385 -3.416034 -6.288532 1.138353 6.320180 11.993127 23.987908 5.904105 0.000000 0.000000 0.000000 -7.639363 0.900304 -11.857933 8.684062 -0.711270 24.090026 -11.026890 -25.525046 11.159539 0.000000 0.000000 0.000000 -2.900457 0.007070 14.034231 6.093468 -1.026063 -24.092745 3.072314 4.598639 29.526720 2.275456 0.731527 -38.798768 0.000000 0.000000 0.000000 -20.421967 0.844269 -0.616405 -50.954318 -14.189878 -2.922496 -18.540672 -23.890087 5.419404 0.000000 0.000000 0.000000 11.855077 9.036543 3.081233 51.697941 19.000703 0.452920 12.019524 28.039852 3.855165 0.000000 0.000000 0.000000 
-0.027093 0.941036 0.041411 -6.737849 -13.280802 0.409022 6.573688 0.042526 -2.992931 -6.949669 1.288832 6.363517 13.018778 25.586856 6.967249 0.000000 0.000000 0.000000 -6.611624 0.847070 -10.352871 5.616557 -0.156431 16.490612 -9.794660 -23.399609 9.270290 0.000000 0.000000 0.000000 -2.683625 -0.020543 13.905142 6.337917 -1.087641 -24.134941 2.877833 4.872772 29.640975 3.767214 0.256923 -40.729132 0.000000 0.000000 0.000000 -21.367745 0.168050 -0.256851 -50.029136 -15.749767 -2.305517 -16.936734 -24.262843 5.098441 0.000000 0.000000 0.000000 12.265184 9.638102 3.351074 50.393221 19.084062 0.416676 11.736313 28.270412 3.802634 0.000000 0.000000 0.000000 
-0.036266 0.939179 0.046029 -6.239716 -13.150259 0.627812 7.118665 0.044502 -3.909857 -7.223520 1.421711 7.711729 12.208346 24.548049 4.972687 0.000000 0.000000 0.000000 -6.743762 0.872301 -10.787414 4.116838 0.052258 14.120323 -7.225707 -19.101929 10.068391 0.000000 0.000000 0.000000 -2.155452 -0.097069 13.381776 5.987808 -0.976867 -24.444208 3.169965 4.600647 28.905613 4.227135 -0.193856 -38.287738 0.000000 0.000000 0.000000 -21.940384 0.043782 -0.146290 -49.670521 -16.999111 -1.754818 -17.119862 -23.189225 4.889428 0.000000 0.000000 0.000000 12.924576 9.303012 3.126627 49.008961 18.628052 0.254116 12.769179 28.011907 3.961622 0.000000 0.000000 0.000000 
-0.047961 0.938753 0.051814 -5.885229 -13.963924 0.170809 7.230490 0.104581 -2.730120 -6.986689 1.401388 7.825023 12.021556 24.408611 4.336462 0.000000 0.000000 0.000000 -7.129903 0.889557 -11.156056 2.574647 0.303886 12.847671 -4.967948 -15.511040 11.377452 0.000000 0.000000 0.000000 -1.878925 -0.128299 12.474485 6.237354 -1.083832 -24.078440 3.075234 5.406681 29.386752 5.535577 -0.700789 -38.772226 0.000000 0.000000 0.000000 -21.353383 -0.183918 -0.045994 -50.926893 -17.506302 -1.535893 -15.590432 -23.975432 4.733966 0.000000 0.000000 0.000000 13.593697 8.938739 3.006651 48.843595 18.205866 0.014601 12.831350 27.985680 3.993906 0.000000 0.000000 0.000000 
-0.062849 0.939593 0.059235 -5.477500 -12.418227 -0.302629 7.597243 0.123633 -1.741748 -6.721279 1.266571 7.338539 11.905166 23.993359 5.219324 0.000000 0.000000 0.000000 -7.348787 0.785366 -10.072977 2.459830 0.296948 13.011698 -5.735328 -17.014611 13.141304 0.000000 0.000000 0.000000 -1.418718 -0.205142 11.769993 6.423223 -1.070564 -24.477971 2.486899 4.521123 29.034046 5.619940 -0.996061 -36.373407 0.000000 0.000000 0.000000 -21.529843 -0.466422 0.096256 -50.808372 -17.592852 -1.485705 -15.613649 -23.922448 4.719590 0.000000 0.000000 0.000000 13.427094 8.463566 2.792411 49.962079 17.413983 -0.247231 13.081825 27.032846 3.908332 0.000000 0.000000 0.000000 
-0.080883 0.940916 0.067067 -4.910330 -11.698331 -0.862887 8.397674 0.175667 -0.708669 -7.151869 1.330507 7.215620 11.626824 23.408708 5.688205 0.000000 0.000000 0.000000 -7.446598 0.712643 -9.167047 2.545108 0.307286 13.875283 -4.470348 -14.883134 13.510866 0.000000 0.000000 0.000000 -1.332379 -0.212647 10.325363 6.668538 -1.211536 -23.675912 2.188530 4.026429 27.997008 6.631158 -1.666337 -34.638906 0.000000 0.000000 0.000000 -21.400808 -0.893328 0.325516 -51.340410 -17.567299 -1.384711 -14.810205 -22.561029 4.242311 0.000000 0.000000 0.000000 13.311201 7.965425 2.529248 50.185298 15.921839 -0.761282 14.428619 26.395952 4.088393 0.000000 0.000000 0.000000 
-0.101585 0.941719 0.074150 -4.762212 -10.392135 -1.092357 9.509443 0.194214 -0.067043 -6.838451 1.237511 7.506634 10.902692 22.107042 5.615000 0.000000 0.000000 0.000000 -7.190234 0.588109 -7.007951 2.646179 0.212981 13.116562 -4.424925 -14.431296 12.540780 0.000000 0.000000 0.000000 -1.205132 -0.219798 9.114794 6.771640 -1.221659 -23.629331 1.889279 2.949665 27.946617 6.875097 -1.992017 -33.454557 0.000000 0.000000 0.000000 -21.029113 -0.466176 0.141391 -51.888596 -17.465279 -1.397678 -14.691640 -21.976494 4.103825 0.000000 0.000000 0.000000 13.852891 7.780052 2.382028 50.120808 14.308668 -1.416072 15.194122 26.236404 4.210790 0.000000 0.000000 0.000000 
